<mxfile host="app.diagrams.net" agent="Mozilla/5.0 (Windows NT 10.0; Win64; x64; rv:129.0) Gecko/20100101 Firefox/129.0" version="24.7.7">
  <diagram id="C5RBs43oDa-KdzZeNtuy" name="Page-1">
    <mxGraphModel dx="1918" dy="1033" grid="0" gridSize="10" guides="1" tooltips="1" connect="1" arrows="1" fold="1" page="0" pageScale="1" pageWidth="827" pageHeight="1169" math="0" shadow="0">
      <root>
        <mxCell id="0" />
        <mxCell id="1" parent="0" />
        <mxCell id="title1" value="User" style="text;html=1;whiteSpace=wrap;fontStyle=1;" parent="1" vertex="1">
          <mxGeometry x="-120" y="20" width="180" height="30" as="geometry" />
        </mxCell>
        <mxCell id="2" value="&lt;span style=&quot;text-align: left; text-wrap: nowrap;&quot;&gt;id : Integer&lt;/span&gt;&lt;br style=&quot;text-align: left; text-wrap: nowrap;&quot;&gt;&lt;span style=&quot;text-align: left; text-wrap: nowrap;&quot;&gt;username : String&lt;/span&gt;&lt;br style=&quot;text-align: left; text-wrap: nowrap;&quot;&gt;&lt;span style=&quot;text-align: left; text-wrap: nowrap;&quot;&gt;password : String&lt;/span&gt;&lt;br style=&quot;text-align: left; text-wrap: nowrap;&quot;&gt;&lt;span style=&quot;text-align: left; text-wrap: nowrap;&quot;&gt;email : String&lt;/span&gt;&lt;br style=&quot;text-align: left; text-wrap: nowrap;&quot;&gt;&lt;span style=&quot;text-align: left; text-wrap: nowrap;&quot;&gt;role : Enum (User, Coach, Admin)&lt;/span&gt;&lt;br style=&quot;text-align: left; text-wrap: nowrap;&quot;&gt;&lt;span style=&quot;text-align: left; text-wrap: nowrap;&quot;&gt;first_name : String&lt;/span&gt;&lt;br style=&quot;text-align: left; text-wrap: nowrap;&quot;&gt;&lt;span style=&quot;text-align: left; text-wrap: nowrap;&quot;&gt;last_name : String&lt;/span&gt;&lt;br style=&quot;text-align: left; text-wrap: nowrap;&quot;&gt;&lt;span style=&quot;text-align: left; text-wrap: nowrap;&quot;&gt;phone : String&lt;/span&gt;&lt;br style=&quot;text-align: left; text-wrap: nowrap;&quot;&gt;&lt;span style=&quot;text-align: left; text-wrap: nowrap;&quot;&gt;address : String&lt;/span&gt;&lt;br style=&quot;text-align: left; text-wrap: nowrap;&quot;&gt;&lt;span style=&quot;text-align: left; text-wrap: nowrap;&quot;&gt;postal_code : String&lt;/span&gt;&lt;br style=&quot;text-align: left; text-wrap: nowrap;&quot;&gt;&lt;span style=&quot;text-align: left; text-wrap: nowrap;&quot;&gt;birth_date : Date&lt;/span&gt;&lt;br style=&quot;text-align: left; text-wrap: nowrap;&quot;&gt;&lt;span style=&quot;text-align: left; text-wrap: nowrap;&quot;&gt;is_premium : Boolean&lt;/span&gt;&lt;br style=&quot;text-align: left; text-wrap: nowrap;&quot;&gt;&lt;span style=&quot;text-align: left; text-wrap: nowrap;&quot;&gt;image : String&lt;/span&gt;&lt;br style=&quot;text-align: left; text-wrap: nowrap;&quot;&gt;&lt;div&gt;&lt;span style=&quot;text-align: left; text-wrap: nowrap;&quot;&gt;presence : Boolean&lt;/span&gt;&lt;/div&gt;&lt;div&gt;&lt;span style=&quot;text-align: left; text-wrap: nowrap;&quot;&gt;presence : Boolean&lt;/span&gt;&lt;/div&gt;" style="rounded=1;whiteSpace=wrap;html=1;" parent="1" vertex="1">
          <mxGeometry x="-139" y="50" width="200" height="280" as="geometry" />
        </mxCell>
        <mxCell id="title2" value="Location" style="text;html=1;whiteSpace=wrap;fontStyle=1;" parent="1" vertex="1">
          <mxGeometry x="210" y="-360" width="180" height="30" as="geometry" />
        </mxCell>
        <mxCell id="4" value="&lt;span style=&quot;text-align: left; text-wrap: nowrap;&quot;&gt;id : Integer&lt;/span&gt;&lt;br style=&quot;text-align: left; text-wrap: nowrap;&quot;&gt;&lt;span style=&quot;text-align: left; text-wrap: nowrap;&quot;&gt;name : String&lt;/span&gt;&lt;br style=&quot;text-align: left; text-wrap: nowrap;&quot;&gt;&lt;span style=&quot;text-align: left; text-wrap: nowrap;&quot;&gt;address : String&lt;/span&gt;&lt;br style=&quot;text-align: left; text-wrap: nowrap;&quot;&gt;&lt;span style=&quot;text-align: left; text-wrap: nowrap;&quot;&gt;city : String&lt;/span&gt;&lt;br style=&quot;text-align: left; text-wrap: nowrap;&quot;&gt;&lt;span style=&quot;text-align: left; text-wrap: nowrap;&quot;&gt;state : Boolean&lt;/span&gt;&lt;br style=&quot;text-align: left; text-wrap: nowrap;&quot;&gt;&lt;span style=&quot;text-align: left; text-wrap: nowrap;&quot;&gt;postal_code : Integer&lt;/span&gt;" style="rounded=1;whiteSpace=wrap;html=1;" parent="1" vertex="1">
          <mxGeometry x="175" y="-330" width="130" height="180" as="geometry" />
        </mxCell>
        <mxCell id="title3" value="Workout" style="text;html=1;whiteSpace=wrap;fontStyle=1;" parent="1" vertex="1">
          <mxGeometry x="490" y="-350" width="180" height="30" as="geometry" />
        </mxCell>
        <mxCell id="6" value="&lt;span style=&quot;text-align: left; text-wrap: nowrap;&quot;&gt;id : Integer&lt;/span&gt;&lt;br style=&quot;text-align: left; text-wrap: nowrap;&quot;&gt;&lt;span style=&quot;text-align: left; text-wrap: nowrap;&quot;&gt;title : String&lt;/span&gt;&lt;br style=&quot;text-align: left; text-wrap: nowrap;&quot;&gt;&lt;span style=&quot;text-align: left; text-wrap: nowrap;&quot;&gt;description : String&lt;/span&gt;&lt;br style=&quot;text-align: left; text-wrap: nowrap;&quot;&gt;&lt;span style=&quot;text-align: left; text-wrap: nowrap;&quot;&gt;duration : Duration&lt;/span&gt;&lt;br style=&quot;text-align: left; text-wrap: nowrap;&quot;&gt;&lt;span style=&quot;text-align: left; text-wrap: nowrap;&quot;&gt;available : Boolean&lt;/span&gt;&lt;br style=&quot;text-align: left; text-wrap: nowrap;&quot;&gt;&lt;span style=&quot;text-align: left; text-wrap: nowrap;&quot;&gt;created_at : DateTime&lt;/span&gt;" style="rounded=1;whiteSpace=wrap;html=1;" parent="1" vertex="1">
          <mxGeometry x="440" y="-300" width="180" height="200" as="geometry" />
        </mxCell>
        <mxCell id="title4" value="WorkoutImage" style="text;html=1;whiteSpace=wrap;fontStyle=1;" parent="1" vertex="1">
          <mxGeometry x="780" y="-350" width="180" height="30" as="geometry" />
        </mxCell>
        <mxCell id="8" value="&lt;span style=&quot;text-align: left; text-wrap: nowrap;&quot;&gt;id : Integer&lt;/span&gt;&lt;br style=&quot;text-align: left; text-wrap: nowrap;&quot;&gt;&lt;span style=&quot;text-align: left; text-wrap: nowrap;&quot;&gt;workout : Workout&lt;/span&gt;&lt;br style=&quot;text-align: left; text-wrap: nowrap;&quot;&gt;&lt;span style=&quot;text-align: left; text-wrap: nowrap;&quot;&gt;image : String&lt;/span&gt;&lt;br style=&quot;text-align: left; text-wrap: nowrap;&quot;&gt;&lt;span style=&quot;text-align: left; text-wrap: nowrap;&quot;&gt;description : String&lt;/span&gt;" style="rounded=1;whiteSpace=wrap;html=1;" parent="1" vertex="1">
          <mxGeometry x="760" y="-320" width="160" height="120" as="geometry" />
        </mxCell>
        <mxCell id="title5" value="WorkoutSchedule" style="text;html=1;whiteSpace=wrap;fontStyle=1;" parent="1" vertex="1">
          <mxGeometry x="100" y="-70" width="180" height="30" as="geometry" />
        </mxCell>
        <mxCell id="10" value="&lt;span style=&quot;text-align: left; text-wrap: nowrap;&quot;&gt;id : Integer&lt;/span&gt;&lt;br style=&quot;text-align: left; text-wrap: nowrap;&quot;&gt;&lt;span style=&quot;text-align: left; text-wrap: nowrap;&quot;&gt;workout : Workout&lt;/span&gt;&lt;br style=&quot;text-align: left; text-wrap: nowrap;&quot;&gt;&lt;span style=&quot;text-align: left; text-wrap: nowrap;&quot;&gt;start_time : DateTime&lt;/span&gt;&lt;br style=&quot;text-align: left; text-wrap: nowrap;&quot;&gt;&lt;span style=&quot;text-align: left; text-wrap: nowrap;&quot;&gt;end_time : DateTime&lt;/span&gt;&lt;br style=&quot;text-align: left; text-wrap: nowrap;&quot;&gt;&lt;span style=&quot;text-align: left; text-wrap: nowrap;&quot;&gt;location : Location&lt;/span&gt;&lt;br style=&quot;text-align: left; text-wrap: nowrap;&quot;&gt;&lt;span style=&quot;text-align: left; text-wrap: nowrap;&quot;&gt;coach : Coach&lt;/span&gt;&lt;br style=&quot;text-align: left; text-wrap: nowrap;&quot;&gt;&lt;span style=&quot;text-align: left; text-wrap: nowrap;&quot;&gt;participants : List&lt;/span&gt;&lt;br style=&quot;text-align: left; text-wrap: nowrap;&quot;&gt;&lt;span style=&quot;text-align: left; text-wrap: nowrap;&quot;&gt;available : Boolean&lt;/span&gt;&lt;br style=&quot;text-align: left; text-wrap: nowrap;&quot;&gt;&lt;div&gt;&lt;span style=&quot;text-align: left; text-wrap: nowrap;&quot;&gt;expired : Boolean&lt;/span&gt;&lt;/div&gt;&lt;div&gt;&lt;span style=&quot;text-align: left; text-wrap: nowrap;&quot;&gt;complet : Boolean&lt;br&gt;&lt;/span&gt;&lt;/div&gt;" style="rounded=1;whiteSpace=wrap;html=1;" parent="1" vertex="1">
          <mxGeometry x="160" y="-30" width="180" height="180" as="geometry" />
        </mxCell>
        <mxCell id="title6" value="WorkoutParticipation" style="text;html=1;whiteSpace=wrap;fontStyle=1;" parent="1" vertex="1">
          <mxGeometry x="686" y="-105" width="180" height="30" as="geometry" />
        </mxCell>
        <mxCell id="12" value="&lt;br style=&quot;text-align: left; text-wrap: nowrap;&quot;&gt;&lt;span style=&quot;text-align: left; text-wrap: nowrap;&quot;&gt;workout_schedule : WorkoutSchedule&lt;/span&gt;&lt;br style=&quot;text-align: left; text-wrap: nowrap;&quot;&gt;&lt;span style=&quot;text-align: left; text-wrap: nowrap;&quot;&gt;participants : List&lt;/span&gt;&lt;br style=&quot;text-align: left; text-wrap: nowrap;&quot;&gt;&lt;span style=&quot;text-align: left; text-wrap: nowrap;&quot;&gt;present : Boolean&lt;/span&gt;" style="rounded=1;whiteSpace=wrap;html=1;" parent="1" vertex="1">
          <mxGeometry x="690" y="-61" width="206" height="146" as="geometry" />
        </mxCell>
        <mxCell id="title7" value="Coach" style="text;html=1;whiteSpace=wrap;fontStyle=1;" parent="1" vertex="1">
          <mxGeometry x="620" y="220" width="180" height="30" as="geometry" />
        </mxCell>
        <mxCell id="14" value="&lt;span style=&quot;text-align: left; text-wrap: nowrap;&quot;&gt;id : Integer&lt;/span&gt;&lt;br style=&quot;text-align: left; text-wrap: nowrap;&quot;&gt;&lt;span style=&quot;text-align: left; text-wrap: nowrap;&quot;&gt;username : String&lt;/span&gt;&lt;br style=&quot;text-align: left; text-wrap: nowrap;&quot;&gt;&lt;span style=&quot;text-align: left; text-wrap: nowrap;&quot;&gt;user : User&lt;/span&gt;&lt;br style=&quot;text-align: left; text-wrap: nowrap;&quot;&gt;&lt;span style=&quot;text-align: left; text-wrap: nowrap;&quot;&gt;specialties : List&lt;/span&gt;&lt;br style=&quot;text-align: left; text-wrap: nowrap;&quot;&gt;&lt;span style=&quot;text-align: left; text-wrap: nowrap;&quot;&gt;available : Boolean&lt;/span&gt;&lt;br style=&quot;text-align: left; text-wrap: nowrap;&quot;&gt;&lt;span style=&quot;text-align: left; text-wrap: nowrap;&quot;&gt;experience : Integer&lt;/span&gt;" style="rounded=1;whiteSpace=wrap;html=1;" parent="1" vertex="1">
          <mxGeometry x="560" y="250" width="180" height="160" as="geometry" />
        </mxCell>
        <mxCell id="title8" value="Plan" style="text;html=1;whiteSpace=wrap;fontStyle=1;" parent="1" vertex="1">
          <mxGeometry x="120" y="450" width="180" height="30" as="geometry" />
        </mxCell>
        <mxCell id="16" value="&lt;span style=&quot;text-align: left; text-wrap: nowrap;&quot;&gt;id : Integer&lt;/span&gt;&lt;br style=&quot;text-align: left; text-wrap: nowrap;&quot;&gt;&lt;span style=&quot;text-align: left; text-wrap: nowrap;&quot;&gt;name : String&lt;/span&gt;&lt;br style=&quot;text-align: left; text-wrap: nowrap;&quot;&gt;&lt;span style=&quot;text-align: left; text-wrap: nowrap;&quot;&gt;description : String&lt;/span&gt;&lt;br style=&quot;text-align: left; text-wrap: nowrap;&quot;&gt;&lt;span style=&quot;text-align: left; text-wrap: nowrap;&quot;&gt;price : Integer&lt;/span&gt;&lt;br style=&quot;text-align: left; text-wrap: nowrap;&quot;&gt;&lt;span style=&quot;text-align: left; text-wrap: nowrap;&quot;&gt;duration : Integer&lt;/span&gt;&lt;br style=&quot;text-align: left; text-wrap: nowrap;&quot;&gt;&lt;span style=&quot;text-align: left; text-wrap: nowrap;&quot;&gt;image : String&lt;/span&gt;&lt;br style=&quot;text-align: left; text-wrap: nowrap;&quot;&gt;&lt;span style=&quot;text-align: left; text-wrap: nowrap;&quot;&gt;is_available : Boolean&lt;/span&gt;&lt;br style=&quot;text-align: left; text-wrap: nowrap;&quot;&gt;&lt;span style=&quot;text-align: left; text-wrap: nowrap;&quot;&gt;is_premium : Boolean&lt;/span&gt;" style="rounded=1;whiteSpace=wrap;html=1;" parent="1" vertex="1">
          <mxGeometry x="140" y="480" width="140" height="130" as="geometry" />
        </mxCell>
        <mxCell id="title9" value="Subscription" style="text;html=1;whiteSpace=wrap;fontStyle=1;" parent="1" vertex="1">
          <mxGeometry x="100" y="280" width="180" height="30" as="geometry" />
        </mxCell>
        <mxCell id="18" value="&lt;span style=&quot;text-align: left; text-wrap: nowrap;&quot;&gt;id : Integer&lt;/span&gt;&lt;br style=&quot;text-align: left; text-wrap: nowrap;&quot;&gt;&lt;span style=&quot;text-align: left; text-wrap: nowrap;&quot;&gt;user : User&lt;/span&gt;&lt;br style=&quot;text-align: left; text-wrap: nowrap;&quot;&gt;&lt;span style=&quot;text-align: left; text-wrap: nowrap;&quot;&gt;plan : Plan&lt;/span&gt;&lt;br style=&quot;text-align: left; text-wrap: nowrap;&quot;&gt;&lt;span style=&quot;text-align: left; text-wrap: nowrap;&quot;&gt;start_date : DateTime&lt;/span&gt;&lt;br style=&quot;text-align: left; text-wrap: nowrap;&quot;&gt;&lt;span style=&quot;text-align: left; text-wrap: nowrap;&quot;&gt;payment_status : String&lt;/span&gt;" style="rounded=1;whiteSpace=wrap;html=1;" parent="1" vertex="1">
          <mxGeometry x="120" y="310" width="185" height="90" as="geometry" />
        </mxCell>
        <mxCell id="title10" value="Review" style="text;html=1;whiteSpace=wrap;fontStyle=1;" parent="1" vertex="1">
          <mxGeometry x="360" y="190" width="180" height="30" as="geometry" />
        </mxCell>
        <mxCell id="20" value="&lt;span style=&quot;text-align: left; text-wrap: nowrap;&quot;&gt;id : Integer&lt;/span&gt;&lt;br style=&quot;text-align: left; text-wrap: nowrap;&quot;&gt;&lt;span style=&quot;text-align: left; text-wrap: nowrap;&quot;&gt;user : User&lt;/span&gt;&lt;br style=&quot;text-align: left; text-wrap: nowrap;&quot;&gt;&lt;span style=&quot;text-align: left; text-wrap: nowrap;&quot;&gt;workout : Workout&lt;/span&gt;&lt;br style=&quot;text-align: left; text-wrap: nowrap;&quot;&gt;&lt;span style=&quot;text-align: left; text-wrap: nowrap;&quot;&gt;content : String&lt;/span&gt;&lt;br style=&quot;text-align: left; text-wrap: nowrap;&quot;&gt;&lt;span style=&quot;text-align: left; text-wrap: nowrap;&quot;&gt;datetime : DateTime&lt;/span&gt;" style="rounded=1;whiteSpace=wrap;html=1;" parent="1" vertex="1">
          <mxGeometry x="350" y="220" width="180" height="120" as="geometry" />
        </mxCell>
        <mxCell id="title11" value="Role (Enum)" style="text;html=1;whiteSpace=wrap;fontStyle=1;" parent="1" vertex="1">
          <mxGeometry x="-110" y="-360" width="180" height="30" as="geometry" />
        </mxCell>
        <mxCell id="22" value="&lt;span style=&quot;text-align: left; text-wrap: nowrap;&quot;&gt;User&lt;/span&gt;&lt;br style=&quot;text-align: left; text-wrap: nowrap;&quot;&gt;&lt;span style=&quot;text-align: left; text-wrap: nowrap;&quot;&gt;Coach&lt;/span&gt;&lt;br style=&quot;text-align: left; text-wrap: nowrap;&quot;&gt;&lt;span style=&quot;text-align: left; text-wrap: nowrap;&quot;&gt;Admin&lt;/span&gt;" style="rounded=1;whiteSpace=wrap;html=1;" parent="1" vertex="1">
          <mxGeometry x="-120" y="-300" width="180" height="80" as="geometry" />
        </mxCell>
        <mxCell id="title12" value="CatalogService" style="text;html=1;whiteSpace=wrap;fontStyle=1;" parent="1" vertex="1">
          <mxGeometry x="647" y="430" width="180" height="30" as="geometry" />
        </mxCell>
        <mxCell id="24" value="&lt;span style=&quot;text-align: left; text-wrap: nowrap;&quot;&gt;id : Integer&lt;/span&gt;&lt;br style=&quot;text-align: left; text-wrap: nowrap;&quot;&gt;&lt;span style=&quot;text-align: left; text-wrap: nowrap;&quot;&gt;name : String&lt;/span&gt;&lt;br style=&quot;text-align: left; text-wrap: nowrap;&quot;&gt;&lt;span style=&quot;text-align: left; text-wrap: nowrap;&quot;&gt;description : String&lt;/span&gt;&lt;br style=&quot;text-align: left; text-wrap: nowrap;&quot;&gt;&lt;span style=&quot;text-align: left; text-wrap: nowrap;&quot;&gt;price : Integer&lt;/span&gt;" style="rounded=1;whiteSpace=wrap;html=1;" parent="1" vertex="1">
          <mxGeometry x="700" y="460" width="180" height="120" as="geometry" />
        </mxCell>
        <mxCell id="title13" value="GymAccessory" style="text;html=1;whiteSpace=wrap;fontStyle=1;" parent="1" vertex="1">
          <mxGeometry x="843" y="304" width="180" height="30" as="geometry" />
        </mxCell>
        <mxCell id="26" value="&lt;br style=&quot;text-wrap: nowrap; background-color: rgb(255, 255, 255); text-align: left;&quot;&gt;&lt;span style=&quot;text-wrap: nowrap; background-color: rgb(255, 255, 255); text-align: left;&quot;&gt;stock : Integer&lt;/span&gt;" style="rounded=1;whiteSpace=wrap;html=1;" parent="1" vertex="1">
          <mxGeometry x="861" y="340" width="180" height="75" as="geometry" />
        </mxCell>
        <mxCell id="title14" value="PersonalizedCoaching" style="text;html=1;whiteSpace=wrap;fontStyle=1;" parent="1" vertex="1">
          <mxGeometry x="901" y="190" width="180" height="30" as="geometry" />
        </mxCell>
        <mxCell id="28" value="&lt;div&gt;&lt;span style=&quot;text-wrap: nowrap; background-color: rgb(255, 255, 255); text-align: left;&quot;&gt;coach : Coach&lt;/span&gt;&lt;/div&gt;&lt;div&gt;&lt;span style=&quot;text-wrap: nowrap; background-color: rgb(255, 255, 255); text-align: left;&quot;&gt;duration : Integer&lt;/span&gt;&lt;/div&gt;" style="rounded=1;whiteSpace=wrap;html=1;" parent="1" vertex="1">
          <mxGeometry x="943" y="228" width="119" height="73" as="geometry" />
        </mxCell>
        <mxCell id="title15" value="DietPlan" style="text;html=1;whiteSpace=wrap;fontStyle=1;" parent="1" vertex="1">
          <mxGeometry x="414" y="430" width="180" height="30" as="geometry" />
        </mxCell>
        <mxCell id="30" value="id : Integer&lt;br style=&quot;text-wrap: nowrap; background-color: rgb(255, 255, 255); text-align: left;&quot;&gt;&lt;span style=&quot;text-wrap: nowrap; background-color: rgb(255, 255, 255); text-align: left;&quot;&gt;partner_company : String&lt;/span&gt;&lt;br style=&quot;text-wrap: nowrap; background-color: rgb(255, 255, 255); text-align: left;&quot;&gt;&lt;span style=&quot;text-wrap: nowrap; background-color: rgb(255, 255, 255); text-align: left;&quot;&gt;price : Integer&lt;/span&gt;" style="rounded=1;whiteSpace=wrap;html=1;" parent="1" vertex="1">
          <mxGeometry x="360" y="462" width="180" height="116" as="geometry" />
        </mxCell>
        <mxCell id="32" value="" style="edgeStyle=orthogonalEdgeStyle;rounded=1;html=1;exitX=0.988;exitY=0.068;exitDx=0;exitDy=0;exitPerimeter=0;" parent="1" source="2" edge="1">
          <mxGeometry relative="1" as="geometry">
            <Array as="points">
              <mxPoint x="62" y="69" />
            </Array>
            <mxPoint x="64" y="68" as="sourcePoint" />
            <mxPoint x="160" y="68" as="targetPoint" />
          </mxGeometry>
        </mxCell>
        <mxCell id="33" value="1" style="text;html=1;whiteSpace=wrap;" parent="32" vertex="1">
          <mxGeometry y="0.5" relative="1" as="geometry" />
        </mxCell>
        <mxCell id="34" value="0..*" style="text;html=1;whiteSpace=wrap;" parent="32" vertex="1">
          <mxGeometry x="1" y="0.5" relative="1" as="geometry" />
        </mxCell>
        <mxCell id="35" value="" style="edgeStyle=orthogonalEdgeStyle;rounded=1;html=1;exitX=0.953;exitY=0.964;exitDx=0;exitDy=0;exitPerimeter=0;" parent="1" edge="1">
          <mxGeometry relative="1" as="geometry">
            <mxPoint x="-40.000000000000085" y="329.9200000000001" as="sourcePoint" />
            <mxPoint x="120" y="370" as="targetPoint" />
            <Array as="points">
              <mxPoint x="-40" y="370" />
            </Array>
          </mxGeometry>
        </mxCell>
        <mxCell id="36" value="1" style="text;html=1;whiteSpace=wrap;" parent="35" vertex="1">
          <mxGeometry y="0.5" relative="1" as="geometry" />
        </mxCell>
        <mxCell id="37" value="0..*" style="text;html=1;whiteSpace=wrap;" parent="35" vertex="1">
          <mxGeometry x="1" y="0.5" relative="1" as="geometry" />
        </mxCell>
        <mxCell id="38" value="" style="edgeStyle=orthogonalEdgeStyle;rounded=1;html=1;entryX=0.917;entryY=1.024;entryDx=0;entryDy=0;entryPerimeter=0;" parent="1" edge="1" target="title12">
          <mxGeometry relative="1" as="geometry">
            <mxPoint x="60" y="190" as="sourcePoint" />
            <mxPoint x="813" y="455" as="targetPoint" />
            <Array as="points">
              <mxPoint x="60" y="191" />
              <mxPoint x="811" y="191" />
              <mxPoint x="811" y="450" />
              <mxPoint x="812" y="450" />
            </Array>
          </mxGeometry>
        </mxCell>
        <mxCell id="39" value="1" style="text;html=1;whiteSpace=wrap;" parent="38" vertex="1">
          <mxGeometry y="0.5" relative="1" as="geometry" />
        </mxCell>
        <mxCell id="40" value="0..*" style="text;html=1;whiteSpace=wrap;" parent="38" vertex="1">
          <mxGeometry x="1" y="0.5" relative="1" as="geometry" />
        </mxCell>
        <mxCell id="41" value="" style="edgeStyle=orthogonalEdgeStyle;rounded=1;html=1;" parent="1" source="4" target="6" edge="1">
          <mxGeometry relative="1" as="geometry">
            <Array as="points">
              <mxPoint x="320" y="-270" />
              <mxPoint x="320" y="-270" />
            </Array>
          </mxGeometry>
          <mxPoint as="sourcePoint" />
          <mxPoint as="targetPoint" />
        </mxCell>
        <mxCell id="42" value="1" style="text;html=1;whiteSpace=wrap;" parent="41" vertex="1">
          <mxGeometry y="0.5" relative="1" as="geometry" />
        </mxCell>
        <mxCell id="43" value="0..*" style="text;html=1;whiteSpace=wrap;" parent="41" vertex="1">
          <mxGeometry x="1" y="0.5" relative="1" as="geometry" />
        </mxCell>
        <mxCell id="44" value="" style="edgeStyle=orthogonalEdgeStyle;rounded=1;html=1;" parent="1" source="4" target="10" edge="1">
          <mxGeometry relative="1" as="geometry">
            <Array as="points">
              <mxPoint x="250" y="-120" />
              <mxPoint x="250" y="-120" />
            </Array>
          </mxGeometry>
        </mxCell>
        <mxCell id="45" value="1" style="text;html=1;whiteSpace=wrap;" parent="44" vertex="1">
          <mxGeometry y="0.5" relative="1" as="geometry" />
        </mxCell>
        <mxCell id="46" value="0..*" style="text;html=1;whiteSpace=wrap;" parent="44" vertex="1">
          <mxGeometry x="1" y="0.5" relative="1" as="geometry" />
        </mxCell>
        <mxCell id="47" value="" style="edgeStyle=orthogonalEdgeStyle;rounded=1;html=1;" parent="1" source="6" target="8" edge="1">
          <mxGeometry relative="1" as="geometry">
            <Array as="points">
              <mxPoint x="740" y="-250" />
              <mxPoint x="740" y="-250" />
            </Array>
          </mxGeometry>
        </mxCell>
        <mxCell id="48" value="1" style="text;html=1;whiteSpace=wrap;" parent="47" vertex="1">
          <mxGeometry y="0.5" relative="1" as="geometry" />
        </mxCell>
        <mxCell id="49" value="0..*" style="text;html=1;whiteSpace=wrap;" parent="47" vertex="1">
          <mxGeometry x="1" y="0.5" relative="1" as="geometry" />
        </mxCell>
        <mxCell id="50" value="" style="edgeStyle=orthogonalEdgeStyle;rounded=1;html=1;" parent="1" source="6" target="10" edge="1">
          <mxGeometry relative="1" as="geometry">
            <Array as="points">
              <mxPoint x="320" y="-200" />
            </Array>
          </mxGeometry>
        </mxCell>
        <mxCell id="51" value="1" style="text;html=1;whiteSpace=wrap;" parent="50" vertex="1">
          <mxGeometry y="0.5" relative="1" as="geometry" />
        </mxCell>
        <mxCell id="52" value="0..*" style="text;html=1;whiteSpace=wrap;" parent="50" vertex="1">
          <mxGeometry x="1" y="0.5" relative="1" as="geometry" />
        </mxCell>
        <mxCell id="53" value="" style="edgeStyle=orthogonalEdgeStyle;rounded=1;html=1;entryX=-0.007;entryY=0.631;entryDx=0;entryDy=0;entryPerimeter=0;" parent="1" target="12" edge="1">
          <mxGeometry relative="1" as="geometry">
            <mxPoint x="340" y="30" as="sourcePoint" />
            <mxPoint x="644" y="-35" as="targetPoint" />
            <Array as="points" />
          </mxGeometry>
        </mxCell>
        <mxCell id="54" value="1" style="text;html=1;whiteSpace=wrap;" parent="53" vertex="1">
          <mxGeometry y="0.5" relative="1" as="geometry" />
        </mxCell>
        <mxCell id="55" value="0..*" style="text;html=1;whiteSpace=wrap;" parent="53" vertex="1">
          <mxGeometry x="1" y="0.5" relative="1" as="geometry" />
        </mxCell>
        <mxCell id="56" value="" style="edgeStyle=orthogonalEdgeStyle;rounded=1;html=1;" parent="1" edge="1">
          <mxGeometry relative="1" as="geometry">
            <mxPoint x="600" y="250" as="sourcePoint" />
            <mxPoint x="600" y="-100" as="targetPoint" />
            <Array as="points">
              <mxPoint x="600" y="250" />
            </Array>
          </mxGeometry>
        </mxCell>
        <mxCell id="57" value="0..*" style="text;html=1;whiteSpace=wrap;" parent="56" vertex="1">
          <mxGeometry y="0.5" relative="1" as="geometry" />
        </mxCell>
        <mxCell id="58" value="1" style="text;html=1;whiteSpace=wrap;" parent="56" vertex="1">
          <mxGeometry x="1" y="0.5" relative="1" as="geometry" />
        </mxCell>
        <mxCell id="59" value="" style="edgeStyle=orthogonalEdgeStyle;rounded=1;html=1;" parent="1" source="16" target="18" edge="1">
          <mxGeometry relative="1" as="geometry">
            <Array as="points">
              <mxPoint x="210" y="430" />
              <mxPoint x="210" y="430" />
            </Array>
          </mxGeometry>
        </mxCell>
        <mxCell id="60" value="1" style="text;html=1;whiteSpace=wrap;" parent="59" vertex="1">
          <mxGeometry y="0.5" relative="1" as="geometry" />
        </mxCell>
        <mxCell id="61" value="0..*" style="text;html=1;whiteSpace=wrap;" parent="59" vertex="1">
          <mxGeometry x="1" y="0.5" relative="1" as="geometry" />
        </mxCell>
        <mxCell id="62" value="" style="edgeStyle=orthogonalEdgeStyle;rounded=1;html=1;" parent="1" source="20" target="2" edge="1">
          <mxGeometry relative="1" as="geometry">
            <Array as="points">
              <mxPoint x="340" y="240" />
              <mxPoint x="340" y="240" />
            </Array>
          </mxGeometry>
        </mxCell>
        <mxCell id="63" value="1" style="text;html=1;whiteSpace=wrap;" parent="62" vertex="1">
          <mxGeometry y="0.5" relative="1" as="geometry" />
        </mxCell>
        <mxCell id="64" value="1" style="text;html=1;whiteSpace=wrap;" parent="62" vertex="1">
          <mxGeometry x="1" y="0.5" relative="1" as="geometry" />
        </mxCell>
        <mxCell id="65" value="" style="edgeStyle=orthogonalEdgeStyle;rounded=1;html=1;" parent="1" source="20" target="6" edge="1">
          <mxGeometry relative="1" as="geometry">
            <Array as="points">
              <mxPoint x="460" y="140" />
              <mxPoint x="460" y="140" />
            </Array>
          </mxGeometry>
        </mxCell>
        <mxCell id="66" value="1" style="text;html=1;whiteSpace=wrap;" parent="65" vertex="1">
          <mxGeometry y="0.5" relative="1" as="geometry" />
        </mxCell>
        <mxCell id="67" value="1" style="text;html=1;whiteSpace=wrap;" parent="65" vertex="1">
          <mxGeometry x="1" y="0.5" relative="1" as="geometry" />
        </mxCell>
        <mxCell id="68" value="" style="edgeStyle=orthogonalEdgeStyle;rounded=1;html=1;exitX=0.5;exitY=1;exitDx=0;exitDy=0;entryX=0.998;entryY=0.156;entryDx=0;entryDy=0;entryPerimeter=0;" parent="1" source="26" target="24" edge="1">
          <mxGeometry relative="1" as="geometry">
            <Array as="points">
              <mxPoint x="960" y="480" />
              <mxPoint x="881" y="480" />
              <mxPoint x="881" y="479" />
            </Array>
          </mxGeometry>
        </mxCell>
        <mxCell id="69" value="0..*" style="text;html=1;whiteSpace=wrap;" parent="68" vertex="1">
          <mxGeometry y="0.5" relative="1" as="geometry" />
        </mxCell>
        <mxCell id="70" value="1" style="text;html=1;whiteSpace=wrap;" parent="68" vertex="1">
          <mxGeometry x="1" y="0.5" relative="1" as="geometry" />
        </mxCell>
        <mxCell id="71" value="" style="edgeStyle=orthogonalEdgeStyle;rounded=1;html=1;exitX=0.92;exitY=0.973;exitDx=0;exitDy=0;exitPerimeter=0;" parent="1" source="28" target="24" edge="1">
          <mxGeometry relative="1" as="geometry">
            <Array as="points">
              <mxPoint x="1058" y="520" />
            </Array>
          </mxGeometry>
        </mxCell>
        <mxCell id="72" value="0..*" style="text;html=1;whiteSpace=wrap;" parent="71" vertex="1">
          <mxGeometry y="0.5" relative="1" as="geometry" />
        </mxCell>
        <mxCell id="73" value="1" style="text;html=1;whiteSpace=wrap;" parent="71" vertex="1">
          <mxGeometry x="1" y="0.5" relative="1" as="geometry" />
        </mxCell>
        <mxCell id="74" value="" style="edgeStyle=orthogonalEdgeStyle;rounded=1;html=1;" parent="1" source="28" target="2" edge="1">
          <mxGeometry relative="1" as="geometry">
            <Array as="points">
              <mxPoint x="1043" y="160" />
            </Array>
          </mxGeometry>
        </mxCell>
        <mxCell id="75" value="0..*" style="text;html=1;whiteSpace=wrap;" parent="74" vertex="1">
          <mxGeometry y="0.5" relative="1" as="geometry" />
        </mxCell>
        <mxCell id="76" value="1" style="text;html=1;whiteSpace=wrap;" parent="74" vertex="1">
          <mxGeometry x="1" y="0.5" relative="1" as="geometry" />
        </mxCell>
        <mxCell id="77" value="" style="edgeStyle=orthogonalEdgeStyle;rounded=1;html=1;" parent="1" source="28" target="14" edge="1">
          <mxGeometry relative="1" as="geometry">
            <Array as="points">
              <mxPoint x="1030" y="270" />
              <mxPoint x="1030" y="270" />
            </Array>
          </mxGeometry>
        </mxCell>
        <mxCell id="78" value="0..*" style="text;html=1;whiteSpace=wrap;" parent="77" vertex="1">
          <mxGeometry y="0.5" relative="1" as="geometry" />
        </mxCell>
        <mxCell id="79" value="1" style="text;html=1;whiteSpace=wrap;" parent="77" vertex="1">
          <mxGeometry x="1" y="0.5" relative="1" as="geometry" />
        </mxCell>
        <mxCell id="80" value="" style="edgeStyle=orthogonalEdgeStyle;rounded=1;html=1;" parent="1" source="30" target="24" edge="1">
          <mxGeometry relative="1" as="geometry" />
        </mxCell>
        <mxCell id="81" value="0..*" style="text;html=1;whiteSpace=wrap;" parent="80" vertex="1">
          <mxGeometry y="0.5" relative="1" as="geometry" />
        </mxCell>
        <mxCell id="82" value="1" style="text;html=1;whiteSpace=wrap;" parent="80" vertex="1">
          <mxGeometry x="1" y="0.5" relative="1" as="geometry" />
        </mxCell>
        <mxCell id="83" value="" style="edgeStyle=orthogonalEdgeStyle;rounded=1;html=1;" parent="1" source="30" target="2" edge="1">
          <mxGeometry relative="1" as="geometry">
            <Array as="points">
              <mxPoint x="320" y="520" />
              <mxPoint x="320" y="270" />
            </Array>
          </mxGeometry>
        </mxCell>
        <mxCell id="84" value="0..*" style="text;html=1;whiteSpace=wrap;" parent="83" vertex="1">
          <mxGeometry y="0.5" relative="1" as="geometry" />
        </mxCell>
        <mxCell id="85" value="1" style="text;html=1;whiteSpace=wrap;" parent="83" vertex="1">
          <mxGeometry x="1" y="0.5" relative="1" as="geometry" />
        </mxCell>
        <mxCell id="2caxBBN01kAWGQ2njQOn-90" value="" style="edgeStyle=orthogonalEdgeStyle;rounded=1;html=1;exitX=0.442;exitY=1.141;exitDx=0;exitDy=0;exitPerimeter=0;" parent="1" source="title1" edge="1">
          <mxGeometry relative="1" as="geometry">
            <mxPoint x="-40" y="-90" as="sourcePoint" />
            <mxPoint x="-40" y="-220" as="targetPoint" />
          </mxGeometry>
          <mxPoint as="sourcePoint" />
          <mxPoint as="targetPoint" />
        </mxCell>
        <mxCell id="2caxBBN01kAWGQ2njQOn-91" value="1" style="text;html=1;whiteSpace=wrap;" parent="2caxBBN01kAWGQ2njQOn-90" vertex="1">
          <mxGeometry y="0.5" relative="1" as="geometry" />
        </mxCell>
        <mxCell id="2caxBBN01kAWGQ2njQOn-92" value="1" style="text;html=1;whiteSpace=wrap;" parent="2caxBBN01kAWGQ2njQOn-90" vertex="1">
          <mxGeometry x="1" y="0.5" relative="1" as="geometry" />
        </mxCell>
        <mxCell id="Q7HTMFTND1uOCzjqWwT6-85" value="&lt;span style=&quot;text-align: left; text-wrap: nowrap;&quot;&gt;sender: User&lt;/span&gt;&lt;br style=&quot;text-align: left; text-wrap: nowrap;&quot;&gt;&lt;span style=&quot;text-align: left; text-wrap: nowrap;&quot;&gt;recipient: User&lt;/span&gt;&lt;br style=&quot;text-align: left; text-wrap: nowrap;&quot;&gt;&lt;span style=&quot;text-align: left; text-wrap: nowrap;&quot;&gt;subject: Integer&lt;/span&gt;&lt;br style=&quot;text-align: left; text-wrap: nowrap;&quot;&gt;&lt;span style=&quot;text-align: left; text-wrap: nowrap;&quot;&gt;body: String&lt;/span&gt;&lt;br style=&quot;text-align: left; text-wrap: nowrap;&quot;&gt;&lt;span style=&quot;text-align: left; text-wrap: nowrap;&quot;&gt;timestamp: Datetime&lt;/span&gt;&lt;br style=&quot;text-align: left; text-wrap: nowrap;&quot;&gt;&lt;span style=&quot;text-align: left; text-wrap: nowrap;&quot;&gt;is_read : Boolean&lt;/span&gt;&lt;br style=&quot;text-align: left; text-wrap: nowrap;&quot;&gt;" style="rounded=1;whiteSpace=wrap;html=1;" vertex="1" parent="1">
          <mxGeometry x="-130" y="477" width="140" height="136" as="geometry" />
        </mxCell>
        <mxCell id="Q7HTMFTND1uOCzjqWwT6-86" value="" style="edgeStyle=orthogonalEdgeStyle;rounded=1;html=1;" edge="1" parent="1">
          <mxGeometry relative="1" as="geometry">
            <Array as="points">
              <mxPoint x="-70" y="330" />
              <mxPoint x="-70" y="480" />
            </Array>
            <mxPoint x="-70" y="334" as="sourcePoint" />
            <mxPoint x="-70" y="477" as="targetPoint" />
          </mxGeometry>
        </mxCell>
        <mxCell id="Q7HTMFTND1uOCzjqWwT6-87" value="1" style="text;html=1;whiteSpace=wrap;" vertex="1" parent="Q7HTMFTND1uOCzjqWwT6-86">
          <mxGeometry y="0.5" relative="1" as="geometry" />
        </mxCell>
        <mxCell id="Q7HTMFTND1uOCzjqWwT6-88" value="0..*" style="text;html=1;whiteSpace=wrap;" vertex="1" parent="Q7HTMFTND1uOCzjqWwT6-86">
          <mxGeometry x="1" y="0.5" relative="1" as="geometry" />
        </mxCell>
        <mxCell id="Q7HTMFTND1uOCzjqWwT6-89" value="&lt;b&gt;Message&lt;/b&gt;" style="text;whiteSpace=wrap;html=1;" vertex="1" parent="1">
          <mxGeometry x="-145.0011764705883" y="447.00352941176465" width="51" height="36" as="geometry" />
        </mxCell>
      </root>
    </mxGraphModel>
  </diagram>
</mxfile>
